<?xml version="1.0" encoding="UTF-8"?>
<svg version="1.1" xmlns="http://www.w3.org/2000/svg" viewBox="810 1180 1600 740">
<path d="M0 0 C293.04 0 586.08 0 888 0 C888 146.85 888 293.7 888 445 C594.96 445 301.92 445 0 445 C-0.33 393.19 -0.66 341.38 -1 288 C-1.66 284.04 -2.32 280.08 -3 276 C-3.93731373 267.71438698 -4.21393624 259.52273623 -4.25 251.1875 C-4.270625 250.03830078 -4.29125 248.88910156 -4.3125 247.70507812 C-4.36310585 236.04675655 -2.62418881 225.91071797 -1 214 C-0.67 143.38 -0.34 72.76 0 0 Z " fill="#DAD210" transform="translate(1500,1278)"/>
<path d="M0 0 C39.6 0 79.2 0 120 0 C134.68751996 56.49046137 134.68751996 56.49046137 141.75592041 84.18942261 C149.48145719 114.45549157 157.27411554 144.70371434 165.125 174.9375 C165.4572439 176.21698013 165.4572439 176.21698013 165.7961998 177.52230835 C166.23895855 179.22737269 166.68171805 180.93243683 167.12447834 182.63750076 C168.19382481 186.75568758 169.26301034 190.87391616 170.33203125 194.9921875 C170.53663404 195.78037117 170.74123684 196.56855484 170.95203972 197.38062286 C176.01999811 216.90712612 181.02876841 236.44864978 186 256 C190.02819071 242.17999095 193.79077879 228.31541898 197.31640625 214.359375 C197.81052451 212.41386488 198.30496974 210.46843779 198.79971313 208.52308655 C199.8470962 204.40288692 200.89280612 200.28226825 201.93710327 196.1612854 C204.71831677 185.18752623 207.51154393 174.21682126 210.3046875 163.24609375 C210.58690596 162.13726522 210.86912441 161.0284367 211.15989494 159.88600731 C217.19587748 136.17529521 223.32877827 112.49023346 229.48843384 88.81140137 C230.75202017 83.95385478 232.01505326 79.09616475 233.27734375 74.23828125 C233.57950648 73.07550974 233.57950648 73.07550974 233.88777351 71.88924789 C236.75117581 60.865465 239.58070859 49.83347853 242.37890625 38.79296875 C242.54817816 38.12545908 242.71745007 37.45794941 242.89185143 36.77021217 C244.60330514 30.0202408 246.30859437 23.26875421 248.00463867 16.51489258 C248.52910251 14.43700374 249.05359589 12.35912236 249.578125 10.28125 C249.92956322 8.87077644 249.92956322 8.87077644 250.2881012 7.43180847 C250.501436 6.58870621 250.71477081 5.74560394 250.93457031 4.87695312 C251.1177179 4.14641724 251.30086548 3.41588135 251.48956299 2.66320801 C252 1 252 1 253 0 C291.61 0 330.22 0 370 0 C370 110.22 370 220.44 370 334 C344.59 334 319.18 334 293 334 C293 252.49 293 170.98 293 87 C288.05 108.285 288.05 108.285 283 130 C276.71900233 154.32060727 276.71900233 154.32060727 274.55078125 162.1875 C274.14416008 163.66682007 274.14416008 163.66682007 273.72932434 165.17602539 C267.98475036 185.9908806 261.98168661 206.73425767 256.0176754 227.48701477 C252.33717569 240.29750273 248.6918024 253.11775283 245.0617466 265.94262123 C244.19258463 269.01328649 243.322997 272.08383091 242.45329285 275.15434265 C239.03218857 287.23331076 239.03218857 287.23331076 235.61758423 299.31411743 C234.28493112 304.03397175 232.94927177 308.75296514 231.61140442 313.47134399 C231.11534748 315.22312949 230.6204814 316.97525267 230.12684631 318.72772217 C229.45125552 321.12574039 228.77166768 323.5225899 228.09106445 325.91918945 C227.8922659 326.62864873 227.69346735 327.33810801 227.4886446 328.06906605 C226.11404408 332.88595592 226.11404408 332.88595592 225 334 C222.47458998 334.09504251 219.97662874 334.12557158 217.45092773 334.11352539 C216.26564987 334.11374443 216.26564987 334.11374443 215.056427 334.1139679 C212.43212178 334.11326857 209.80788664 334.10547527 207.18359375 334.09765625 C205.36898335 334.09579214 203.55437244 334.0943682 201.73976135 334.09336853 C196.9540977 334.08954279 192.1684642 334.07971204 187.3828125 334.06866455 C182.50325936 334.05845163 177.62370136 334.05387117 172.74414062 334.04882812 C163.16274714 334.03808982 153.58137607 334.02101273 144 334 C131.18518402 290.62082132 118.48633663 247.21048068 106.06311035 203.71740723 C105.04187527 200.14642642 104.01716676 196.57646295 102.99121094 193.00683594 C93.20040017 158.9167044 84.43266723 124.6857804 77 90 C77 170.52 77 251.04 77 334 C51.59 334 26.18 334 0 334 C0 223.78 0 113.56 0 0 Z " fill="#000000" transform="translate(850,1320)"/>
<path d="M0 0 C25.08 0 50.16 0 76 0 C76 117.15 76 234.3 76 355 C50.92 355 25.84 355 0 355 C-0.33 343.12 -0.66 331.24 -1 319 C-6.0874305 326.34274489 -6.0874305 326.34274489 -11.17089844 333.68823242 C-11.8105957 334.60967041 -12.45029297 335.5311084 -13.109375 336.48046875 C-13.75874023 337.41785889 -14.40810547 338.35524902 -15.07714844 339.32104492 C-18.92512198 344.68211827 -21.71461981 347.73908677 -27.75 350.625 C-28.92046875 351.19476562 -30.0909375 351.76453125 -31.296875 352.3515625 C-46.79400801 359.4115054 -63.10219752 361.6301613 -80 362 C-81.01964844 362.03996094 -82.03929687 362.07992188 -83.08984375 362.12109375 C-86.07444621 362.19225538 -89.01689915 362.12769516 -92 362 C-93.04631592 361.95649414 -93.04631592 361.95649414 -94.11376953 361.91210938 C-118.12786273 360.723243 -141.08527474 352.32807487 -159 336 C-159.4738916 335.56848633 -159.9477832 335.13697266 -160.43603516 334.69238281 C-180.8755146 315.83425635 -193.28245504 289.27538316 -198 262 C-198.20367188 260.82824219 -198.40734375 259.65648437 -198.6171875 258.44921875 C-204.37703403 218.5642541 -198.37429369 172.55357164 -173.84765625 139.3671875 C-160.02935135 121.66339729 -145.56416128 109.21742758 -125 100 C-124.07316406 99.57976562 -123.14632813 99.15953125 -122.19140625 98.7265625 C-91.34538559 85.59849611 -54.56054859 88.98416319 -23.9453125 100.71875 C-10.14196437 106.72338951 -11.82509416 111.67984934 -1 129 C-0.67 86.43 -0.34 43.86 0 0 Z " fill="#000000" transform="translate(1696,1298)"/>
<path d="M0 0 C0.72461426 0.19335938 1.44922852 0.38671875 2.19580078 0.5859375 C30.62827727 8.48825136 52.73141629 25.51089519 69 50 C69.56460937 50.83015625 70.12921875 51.6603125 70.7109375 52.515625 C85.26948622 75.16225635 90.21297342 103.09716351 90.125 129.5625 C90.12886719 130.72974609 90.13273437 131.89699219 90.13671875 133.09960938 C90.13478516 134.81567383 90.13478516 134.81567383 90.1328125 136.56640625 C90.13168457 137.58677979 90.13055664 138.60715332 90.12939453 139.65844727 C89.96954856 143.78639402 89.4561971 147.8942261 89 152 C29.27 152 -30.46 152 -92 152 C-86.59668359 183.84551769 -86.59668359 183.84551769 -66.6875 207.125 C-54.03651785 215.31340609 -37.79837072 215.96232074 -23.23828125 213.31640625 C-20.34189945 212.40395133 -17.71870739 211.34888102 -15 210 C-14.11183594 209.56429688 -13.22367188 209.12859375 -12.30859375 208.6796875 C0.7165168 201.57508175 5.46784883 190.59645352 10 177 C35.08 177 60.16 177 86 177 C78.73284747 206.06861012 63.95822306 231.23238634 38.4296875 247.9453125 C17.70603571 260.36062097 -5.7117215 268.04802888 -30.0234375 268.203125 C-30.76282059 268.21013931 -31.50220367 268.21715363 -32.26399231 268.22438049 C-34.63439093 268.24177663 -37.00453991 268.24823174 -39.375 268.25 C-40.18401764 268.25067474 -40.99303528 268.25134949 -41.8265686 268.25204468 C-53.49098565 268.23656023 -64.64306907 267.89170315 -76 265 C-76.68932617 264.83371094 -77.37865234 264.66742187 -78.08886719 264.49609375 C-99.38805451 259.27996624 -117.1474368 249.1178633 -133 234 C-133.88365234 233.22849609 -133.88365234 233.22849609 -134.78515625 232.44140625 C-156.87918321 212.33218549 -167.25637281 177.40065719 -168.90625 148.4453125 C-168.9371875 147.30835938 -168.968125 146.17140625 -169 145 C-169.02578125 144.17725586 -169.0515625 143.35451172 -169.078125 142.50683594 C-170.12516626 104.61703046 -161.41276303 68.01062733 -136 39 C-135.34257813 38.20980469 -134.68515625 37.41960937 -134.0078125 36.60546875 C-117.92447675 17.64780191 -93.85682816 5.73096989 -70 0 C-68.081875 -0.47953125 -68.081875 -0.47953125 -66.125 -0.96875 C-45.82116046 -5.44508921 -20.09040964 -5.42426321 0 0 Z M-69 60 C-69.845625 60.763125 -70.69125 61.52625 -71.5625 62.3125 C-72.7690625 63.6428125 -72.7690625 63.6428125 -74 65 C-74.54398438 65.58910156 -75.08796875 66.17820312 -75.6484375 66.78515625 C-83.62600409 76.10392945 -90 91.59738255 -90 104 C-57 104 -24 104 10 104 C9.347996 97.47995998 8.78369771 92.12193719 6.8125 86.0625 C6.59400391 85.38010254 6.37550781 84.69770508 6.15039062 83.99462891 C1.82360363 71.03559716 -4.95794287 60.83155164 -17 54 C-33.43140868 46.46893769 -55.34674469 47.49270137 -69 60 Z " fill="#000000" transform="translate(1405,1392)"/>
<path d="M0 0 C1.31693848 0.00491455 2.63387695 0.0098291 3.99072266 0.01489258 C26.97957808 0.22816963 47.20799157 4.86606172 67.625 15.3125 C68.65238281 15.83457031 69.67976563 16.35664062 70.73828125 16.89453125 C93.68318915 29.38507052 110.77689588 51.3145265 118.19873047 76.23925781 C120.71681692 85.02387332 121.85401733 93.06070797 122.625 102.3125 C98.205 102.3125 73.785 102.3125 48.625 102.3125 C46.645 94.3925 46.645 94.3925 44.625 86.3125 C43.42652256 83.2878889 42.32867804 80.63015919 40.8125 77.8125 C40.287771 76.81682007 40.287771 76.81682007 39.75244141 75.80102539 C33.5022867 64.28004861 25.35021774 58.51158478 12.953125 54.43359375 C-0.11157829 51.38089347 -12.7243489 53.04283438 -24.21875 59.8828125 C-38.84674966 69.58181228 -44.74448738 84.84744568 -48.796875 101.36328125 C-50.14680111 108.24972862 -50.55284042 114.98247553 -50.61328125 121.98046875 C-50.62538887 123.35372063 -50.62538887 123.35372063 -50.63774109 124.75471497 C-50.65151103 126.69021761 -50.66226455 128.6257438 -50.67016602 130.5612793 C-50.68158516 132.49722664 -50.70187318 134.43314508 -50.73168945 136.36889648 C-51.08436727 159.35206286 -48.3167102 183.15177263 -34.375 202.3125 C-33.65570312 203.02019531 -32.93640625 203.72789062 -32.1953125 204.45703125 C-30.375 206.3125 -30.375 206.3125 -30.375 208.3125 C-29.51261719 208.73208984 -29.51261719 208.73208984 -28.6328125 209.16015625 C-26.44640963 210.27605391 -24.36150786 211.49945752 -22.25 212.75 C-11.32641279 218.74378649 0.73769898 220.41516389 12.9375 217.1875 C20.4880691 214.51963225 27.33718838 210.35571328 32.625 204.3125 C33.429375 203.466875 34.23375 202.62125 35.0625 201.75 C41.80179842 193.44243716 44.524377 183.38952476 47.625 173.3125 C72.375 173.3125 97.125 173.3125 122.625 173.3125 C121.28615348 182.0150024 120.03056056 189.21554162 117 197.25 C116.64736084 198.19657471 116.29472168 199.14314941 115.93139648 200.1184082 C111.11713711 212.66883919 104.68068088 223.29659195 95.625 233.3125 C94.80386719 234.22773437 93.98273437 235.14296875 93.13671875 236.0859375 C82.29079133 247.5585185 69.19421595 255.43483719 54.625 261.3125 C53.97289551 261.58046387 53.32079102 261.84842773 52.64892578 262.12451172 C32.14013761 270.33893328 9.54158125 272.4207562 -12.375 271.3125 C-13.24817871 271.27382812 -14.12135742 271.23515625 -15.02099609 271.1953125 C-48.11382703 269.53487162 -76.78176678 256.24957251 -99.4375 232.125 C-127.06621837 199.93782106 -131.8533349 157.64741614 -129.14794922 116.89208984 C-126.65402473 89.81959387 -115.63041045 64.18414333 -98.375 43.3125 C-97.48167969 42.18908203 -97.48167969 42.18908203 -96.5703125 41.04296875 C-79.24836679 20.03285757 -51.74312888 7.03859086 -25.375 2.3125 C-24.20710938 2.05980347 -24.20710938 2.05980347 -23.015625 1.80200195 C-15.31947749 0.21629608 -7.84336411 -0.03470515 0 0 Z " fill="#000000" transform="translate(2186.375,1388.6875)"/>
<path d="M0 0 C25.08 0 50.16 0 76 0 C76 21.45 76 42.9 76 65 C94.15 65 112.3 65 131 65 C131 80.84 131 96.68 131 113 C112.85 113 94.7 113 76 113 C76.06305675 130.08210826 76.13839293 147.16401604 76.23571491 164.24595737 C76.2805249 172.17885057 76.3199729 180.11170036 76.34643555 188.04467773 C76.36953631 194.96563158 76.4030669 201.88644631 76.44870156 208.80728954 C76.47247247 212.46587721 76.49130609 216.1243285 76.49761391 219.78299141 C75.39538397 244.59263746 75.39538397 244.59263746 84 267 C85.89037933 268.67219725 85.89037933 268.67219725 87.9375 269.8125 C88.91009766 270.40998047 88.91009766 270.40998047 89.90234375 271.01953125 C94.35624552 273.10133636 98.98011773 273.16678777 103.83203125 273.31640625 C104.99710205 273.35451416 106.16217285 273.39262207 107.36254883 273.43188477 C109.56527466 273.49653931 109.56527466 273.49653931 111.8125 273.5625 C116.494375 273.706875 121.17625 273.85125 126 274 C126 290.17 126 306.34 126 323 C110.77127452 325.03049673 96.30869529 326.20788561 81.02929688 326.24023438 C78.26922365 326.24993245 75.50989937 326.28104816 72.75 326.3125 C53.00808979 326.43071569 31.46635007 323.93730236 16.0390625 310.26171875 C8.8950264 302.72772435 5.09718407 293.51886116 2.6875 283.5625 C2.52805908 282.90773682 2.36861816 282.25297363 2.2043457 281.57836914 C-0.29839102 270.20216763 -0.14524584 258.43404097 -0.11352539 246.84643555 C-0.11324253 245.37655642 -0.11340317 243.90667715 -0.1139679 242.4367981 C-0.11425203 238.489334 -0.10841796 234.54190098 -0.10139394 230.59444404 C-0.09509592 226.45316718 -0.09455154 222.31188943 -0.09336853 218.17060852 C-0.09027408 210.3476475 -0.08208639 202.52470063 -0.07201904 194.70174581 C-0.06079898 185.78746838 -0.05533267 176.87319023 -0.05032361 167.95890749 C-0.03990198 149.63926203 -0.02158024 131.31963595 0 113 C-12.87 113 -25.74 113 -39 113 C-39 97.16 -39 81.32 -39 65 C-26.13 65 -13.26 65 0 65 C0 43.55 0 22.1 0 0 Z " fill="#000000" transform="translate(1820,1333)"/>
<path d="M0 0 C24.75 0 49.5 0 75 0 C75 84.81 75 169.62 75 257 C50.25 257 25.5 257 0 257 C0 172.19 0 87.38 0 0 Z " fill="#000000" transform="translate(1964,1396)"/>
<path d="M0 0 C14.53239271 12.14381203 20.94805537 30.69430818 23.16796875 49 C23.68432058 55.69892873 23.65424469 62.41053949 23.60546875 69.125 C23.60209503 70.02564178 23.59872131 70.92628357 23.59524536 71.85421753 C23.4640811 96.03377226 21.08135204 120.18692511 4.16796875 139 C-8.16117705 150.95927143 -23.9963007 155.55382252 -40.92700195 155.42163086 C-55.85050895 154.87253279 -68.66405743 147.62325623 -78.83203125 137 C-93.51825544 119.18392476 -98.20897679 97.7458396 -98.14770508 75.2409668 C-98.14455936 72.83400505 -98.16802972 70.4282939 -98.19335938 68.02148438 C-98.28825172 44.68708402 -93.1525932 21.51333029 -76.83203125 4 C-70.54600066 -1.96179274 -63.93147735 -5.9755958 -55.83203125 -9 C-54.99285156 -9.3196875 -54.15367188 -9.639375 -53.2890625 -9.96875 C-34.85941763 -15.9911453 -15.47536486 -10.92880939 0 0 Z " fill="#DAD210" transform="translate(1672.83203125,1453)"/>
<path d="M0 0 C2.8125 2.5 2.8125 2.5 5 5 C5.680625 5.7425 6.36125 6.485 7.0625 7.25 C13.99932106 17.09581054 15.49061504 27.9805158 13.5390625 39.7890625 C10.73571718 50.17793044 5.30517003 58.47023078 -4 64 C-15.11483821 69.95815817 -28.64930458 71.22868244 -40.890625 67.8125 C-51.09553396 63.88172025 -58.63029982 58.48543323 -63.3125 48.4375 C-67.62331794 38.11884529 -68.97501008 26.90453714 -65.4375 16.125 C-60.80280869 5.27853492 -53.21376741 -1.65497298 -42.3046875 -6.09765625 C-28.12709107 -10.54107204 -12.24351744 -8.51503888 0 0 Z " fill="#010100" transform="translate(2028,1304)"/>
<path d="M0 0 C0.66 0.66 1.32 1.32 2 2 C2.33 0.68 2.66 -0.64 3 -2 C6.63 -2 10.26 -2 14 -2 C14.04535994 5.66757496 14.08197857 13.33509922 14.10362434 21.00277615 C14.11401832 24.56399497 14.12809633 28.12511647 14.15087891 31.6862793 C14.17696249 35.78955977 14.186509 39.89273954 14.1953125 43.99609375 C14.20563507 45.26206894 14.21595764 46.52804413 14.22659302 47.8323822 C14.22784129 57.75302207 13.76205003 67.17924517 7 75 C-1.5900943 82.11028814 -11.21035947 82.75695696 -22 82 C-28.85480689 80.89468561 -34.56364379 78.49615242 -39 73 C-41.47662054 68.48901259 -42 65.20056489 -42 60 C-38.37 60 -34.74 60 -31 60 C-30.773125 61.0725 -30.54625 62.145 -30.3125 63.25 C-28.82258164 67.50690961 -27.81813991 68.70911606 -24 71 C-18.50099678 73.2207513 -13.69616428 73.44219824 -8 72 C-3.51531466 69.59155787 -0.1496736 67.03095768 1.6875 62.1875 C2.12626487 59.11614591 2.05955591 56.0969072 2 53 C1.154375 53.78375 0.30875 54.5675 -0.5625 55.375 C-6.33969753 60.10667222 -12.76277867 60.45210415 -20 60.31640625 C-27.15413798 59.56186826 -33.03657602 56.07885245 -38 51 C-44.1615873 41.5440987 -45.46073888 30.56610259 -43.34765625 19.62109375 C-40.95963389 10.77618691 -37.25366033 4.36809488 -29.3125 -0.4375 C-20.65613538 -4.52069086 -8.3400179 -5.04280152 0 0 Z M-27.58203125 10.90625 C-32.7041298 18.81819474 -32.68577501 26.78966057 -32 36 C-30.53877785 41.70988437 -27.83795599 46.52929244 -23 50 C-17.03319481 52.1107066 -11.89678247 52.65933327 -6 50 C-1.38429102 46.11860836 1.75871821 41.930954 3 36 C4.00948036 22.80385056 4.00948036 22.80385056 -1 11 C-5.03401446 7.06942181 -8.73321579 5.25661708 -14.3125 4.625 C-19.72100694 5.17501766 -24.02910838 6.62519726 -27.58203125 10.90625 Z " fill="#000000" transform="translate(1341,1767)"/>
<path d="M0 0 C40.64705882 0 40.64705882 0 49.25 8.125 C52.4462369 13.37596062 53.66081065 19.25082121 52.375 25.3125 C50.38693024 30.64414162 47.67754269 33.82595317 43 37 C43.81404297 37.47179688 43.81404297 37.47179688 44.64453125 37.953125 C49.72762979 40.99382539 53.06749047 43.20247142 55 49 C55.64248238 56.6992561 55.84856582 63.66072605 51 70 C46.4301782 74.67368138 43.52446613 75.5533252 37 78 C24.79 78 12.58 78 0 78 C0 52.26 0 26.52 0 0 Z M10 9 C10 16.92 10 24.84 10 33 C13.691875 33.061875 17.38375 33.12375 21.1875 33.1875 C22.3427417 33.21481201 23.4979834 33.24212402 24.68823242 33.27026367 C26.0703894 33.28150269 26.0703894 33.28150269 27.48046875 33.29296875 C28.41785889 33.3086792 29.35524902 33.32438965 30.32104492 33.34057617 C34.28291748 32.83690241 36.88249874 31.00189768 39.8125 28.375 C41.67929499 24.64141002 41.51935444 21.08900183 41 17 C39.62959228 13.29183794 38.52627985 12.29043369 35.0625 10.37890625 C30.16900057 8.37359189 25.26678321 8.67485063 20.0625 8.8125 C16.741875 8.874375 13.42125 8.93625 10 9 Z M10 42 C10 51.24 10 60.48 10 70 C13.135 70.04125 16.27 70.0825 19.5 70.125 C20.47130859 70.14320801 21.44261719 70.16141602 22.44335938 70.18017578 C29.25935966 70.22315707 35.49357517 70.07979932 40.9375 65.5625 C44.32283016 61.35648375 44.53498557 57.23097 44 52 C42.66966907 48.0829145 41.71241233 46.46954449 38.25 44.1875 C31.80630416 41.83307267 25.32843206 41.86718359 18.5625 41.9375 C15.736875 41.958125 12.91125 41.97875 10 42 Z " fill="#000000" transform="translate(1534,1747)"/>
<path d="M0 0 C45.1224359 0 45.1224359 0 56.328125 10.0234375 C65.79008661 21.20977529 65.80581822 34.176896 65 48 C63.45941989 58.11688039 58.16866228 65.26530633 50.8671875 72.140625 C34.91343797 82.4866533 19.57240465 78 0 78 C0 52.26 0 26.52 0 0 Z M11 9 C11 29.13 11 49.26 11 70 C30.05625206 71.04313434 30.05625206 71.04313434 45.59375 62.4296875 C52.68997768 54.67253665 54.37006363 46.18640786 54.203125 35.93359375 C53.61687726 27.46682347 51.39613431 20.96562917 45.32421875 14.8828125 C35.12190555 6.61808147 24.2327876 9 11 9 Z " fill="#000000" transform="translate(1108,1747)"/>
<path d="M0 0 C0.88042969 -0.00128906 1.76085938 -0.00257812 2.66796875 -0.00390625 C3.57933594 -0.00003906 4.49070312 0.00382812 5.4296875 0.0078125 C6.34878906 0.00394531 7.26789063 0.00007813 8.21484375 -0.00390625 C9.09269531 -0.00261719 9.97054688 -0.00132813 10.875 0 C11.67695801 0.00112793 12.47891602 0.00225586 13.30517578 0.00341797 C15.3046875 0.1328125 15.3046875 0.1328125 17.3046875 1.1328125 C17.3046875 3.7728125 17.3046875 6.4128125 17.3046875 9.1328125 C16.1703125 9.09800781 15.0359375 9.06320312 13.8671875 9.02734375 C1.29504194 8.38162671 1.29504194 8.38162671 -9.6328125 13.8203125 C-11.95662221 18.87801598 -12.11009309 22.72716716 -10.5703125 27.9453125 C-8.44004415 31.56676869 -7.48660099 32.43241714 -3.6953125 34.1328125 C-0.42915542 34.62404894 2.81836739 34.73421354 6.1171875 34.8203125 C7.44266602 34.87155273 7.44266602 34.87155273 8.79492188 34.92382812 C10.96440917 35.00591683 13.1345264 35.07105129 15.3046875 35.1328125 C15.3046875 31.1728125 15.3046875 27.2128125 15.3046875 23.1328125 C18.6046875 23.1328125 21.9046875 23.1328125 25.3046875 23.1328125 C25.3046875 27.0928125 25.3046875 31.0528125 25.3046875 35.1328125 C28.9346875 35.1328125 32.5646875 35.1328125 36.3046875 35.1328125 C36.3046875 38.1028125 36.3046875 41.0728125 36.3046875 44.1328125 C32.6746875 44.1328125 29.0446875 44.1328125 25.3046875 44.1328125 C25.3046875 55.6828125 25.3046875 67.2328125 25.3046875 79.1328125 C17.8942588 80.48016317 11.55290153 81.45226193 4.1796875 81.3828125 C2.93638672 81.39441406 2.93638672 81.39441406 1.66796875 81.40625 C-5.49991651 81.3838153 -12.94446727 80.81586187 -19.0703125 76.7578125 C-19.69679688 76.35820313 -20.32328125 75.95859375 -20.96875 75.546875 C-25.62816505 71.73079299 -26.56430264 67.7092482 -27.46875 61.9453125 C-27.98156074 55.57938609 -26.04671242 50.70466659 -22.203125 45.67578125 C-19.69289244 43.10701995 -16.90766651 41.70749584 -13.6953125 40.1328125 C-14.4378125 39.5759375 -15.1803125 39.0190625 -15.9453125 38.4453125 C-19.56759227 35.39930451 -22.18773872 32.65553385 -23.6953125 28.1328125 C-24.32169714 19.78503256 -24.04250124 14.03786603 -18.4453125 7.5078125 C-12.84179691 2.66841267 -7.45194268 0.01045153 0 0 Z M-13.6953125 51.1328125 C-16.1211343 54.99207445 -15.91674105 58.60137131 -15.3046875 62.98046875 C-14.15181664 67.05246774 -11.3366695 69.15578881 -7.82299805 71.24731445 C-5.37902963 72.26444279 -3.60510698 72.37666495 -0.96484375 72.36328125 C-0.07990234 72.36134766 0.80503906 72.35941406 1.71679688 72.35742188 C2.63267578 72.34517578 3.54855469 72.33292969 4.4921875 72.3203125 C5.41966797 72.31966797 6.34714844 72.31902344 7.30273438 72.31835938 C11.63612004 72.68403718 11.63612004 72.68403718 15.3046875 71.1328125 C15.39226753 69.13316268 15.41165326 67.1304514 15.40234375 65.12890625 C15.39912109 63.91396484 15.39589844 62.69902344 15.39257812 61.44726562 C15.38419922 60.16787109 15.37582031 58.88847656 15.3671875 57.5703125 C15.36041992 55.64541992 15.36041992 55.64541992 15.35351562 53.68164062 C15.34168295 50.49865228 15.32519818 47.31575488 15.3046875 44.1328125 C-0.5048903 43.44252416 -0.5048903 43.44252416 -13.6953125 51.1328125 Z " fill="#000000" transform="translate(1470.6953125,1745.8671875)"/>
<path d="M0 0 C3.63 0 7.26 0 11 0 C11 27.39 11 54.78 11 83 C7.37 83 3.74 83 0 83 C-0.33 81.35 -0.66 79.7 -1 78 C-2.2684375 79.175625 -2.2684375 79.175625 -3.5625 80.375 C-9.33969753 85.10667222 -15.76277867 85.45210415 -23 85.31640625 C-30.15413798 84.56186826 -36.03657602 81.07885245 -41 76 C-47.1615873 66.5440987 -48.46073888 55.56610259 -46.34765625 44.62109375 C-43.95963389 35.77618691 -40.25366033 29.36809488 -32.3125 24.5625 C-24.89436997 21.06338206 -15.50971159 20.6574437 -7.53125 22.6015625 C-4.88712526 23.71075042 -3.02861743 24.97138257 -1 27 C-0.67 18.09 -0.34 9.18 0 0 Z M-30.58203125 35.90625 C-35.7041298 43.81819474 -35.68577501 51.78966057 -35 61 C-33.53877785 66.70988437 -30.83795599 71.52929244 -26 75 C-20.03319481 77.1107066 -14.89678247 77.65933327 -9 75 C-4.38429102 71.11860836 -1.24128179 66.930954 0 61 C1.00948036 47.80385056 1.00948036 47.80385056 -4 36 C-8.03401446 32.06942181 -11.73321579 30.25661708 -17.3125 29.625 C-22.72100694 30.17501766 -27.02910838 31.62519726 -30.58203125 35.90625 Z " fill="#000000" transform="translate(1741,1742)"/>
<path d="M0 0 C6.41285218 4.97445543 9.23461474 11.08837999 10.71484375 18.93359375 C11.14290852 23.14289729 11.08984375 27.3900802 11.08984375 31.62109375 C-3.10015625 31.62109375 -17.29015625 31.62109375 -31.91015625 31.62109375 C-30.32799131 39.46309568 -30.32799131 39.46309568 -26.91015625 45.62109375 C-26.91015625 46.28109375 -26.91015625 46.94109375 -26.91015625 47.62109375 C-20.80488663 50.12255839 -16.38052979 51.31824091 -9.91015625 49.62109375 C-4.76128367 46.31804342 -2.8775489 43.19537291 -0.91015625 37.62109375 C2.71984375 37.62109375 6.34984375 37.62109375 10.08984375 37.62109375 C8.83477936 44.52394789 7.79504431 49.99040136 1.74609375 54.28515625 C-6.56649021 59.44384806 -13.10064277 60.45006672 -22.91015625 59.62109375 C-29.25006458 57.89543823 -35.44582423 54.40298943 -39.09375 48.8046875 C-44.46802611 38.74514504 -45.3769418 27.92835636 -42.78515625 16.87109375 C-40.12670449 8.18096608 -34.68833968 2.52955323 -27.03515625 -2.12890625 C-18.51208983 -5.48591272 -7.81972922 -4.59295244 0 0 Z M-27.66015625 10.49609375 C-30.75614501 14.79607813 -31.91015625 17.30940088 -31.91015625 22.62109375 C-21.35015625 22.62109375 -10.79015625 22.62109375 0.08984375 22.62109375 C-1.43654711 13.0424269 -1.43654711 13.0424269 -6.91015625 6.62109375 C-14.47582084 2.24097214 -21.90713448 4.48157099 -27.66015625 10.49609375 Z " fill="#000000" transform="translate(1933.91015625,1767.37890625)"/>
<path d="M0 0 C1.05550049 0.01244751 1.05550049 0.01244751 2.13232422 0.02514648 C8.77620356 0.24157705 12.93501646 1.5328946 17.76171875 6.015625 C25.85289696 14.71413136 26.0625 23.59981501 26.0625 35.4375 C11.8725 35.4375 -2.3175 35.4375 -16.9375 35.4375 C-14.38642486 47.11276299 -14.38642486 47.11276299 -6.9375 53.4375 C-1.93341347 55.05707987 2.4819475 54.63867749 7.30078125 52.59375 C11.24731247 50.00356543 12.61283103 45.78650691 14.0625 41.4375 C17.6925 41.4375 21.3225 41.4375 25.0625 41.4375 C24.78440683 47.97268952 22.44794189 52.5789399 18.0625 57.4375 C10.13925746 63.22228953 2.6921656 64.10370328 -6.9375 63.4375 C-13.81816871 62.11148342 -19.18430676 59.29961829 -23.34375 53.46484375 C-29.43724041 43.42121276 -30.18390108 32.24284445 -27.6875 20.95703125 C-25.49615949 13.59549674 -21.47621046 7.57116753 -14.9375 3.4375 C-9.88050906 0.87537279 -5.70709471 -0.08680252 0 0 Z M-12.6875 14.0625 C-15.64319333 18.05607844 -15.64319333 18.05607844 -16.9375 26.4375 C-6.3775 26.4375 4.1825 26.4375 15.0625 26.4375 C14.04216087 18.27478693 13.33343549 15.26239883 7.3125 10.0625 C-0.26328591 6.27460704 -6.66981108 8.3183424 -12.6875 14.0625 Z " fill="#000000" transform="translate(1202.9375,1763.5625)"/>
<path d="M0 0 C1.36125 0.86625 1.36125 0.86625 2.75 1.75 C9.17197368 8.17197368 12.19865802 15.72384367 12.32910156 24.84814453 C12.32088379 25.85143799 12.32088379 25.85143799 12.3125 26.875 C12.30621582 27.9266333 12.30621582 27.9266333 12.29980469 28.99951172 C12.10552138 37.93034348 9.69475602 44.99879777 3.50390625 51.59375 C-3.63226106 58.31789841 -11.25241143 59.54955428 -20.85546875 59.28125 C-29.61649915 58.49765473 -36.83478194 54.9475179 -42.5390625 48.171875 C-48.31361808 39.32431032 -48.8272491 27.62600541 -47 17.5 C-44.56374529 8.17867765 -40.13511488 3.27120554 -32.1484375 -1.87109375 C-23.12692445 -6.61148879 -8.40546797 -5.50176085 0 0 Z M-30.6875 9.6875 C-36.08842801 16.8132405 -36.85404107 24.22876736 -36 33 C-34.62458824 39.61792324 -32.173185 44.53196722 -26.75 48.75 C-21.68633438 51.05166619 -17.16235148 51.6377647 -11.875 50 C-6.54788398 47.66611616 -3.42540658 43.96005966 -0.9296875 38.77734375 C2.00561083 30.64577404 1.86099505 21.35221159 -1.75 13.4375 C-4.59525287 8.55845627 -8.55757844 5.51881532 -14 4 C-21.17612532 3.43046624 -25.42392765 4.42392765 -30.6875 9.6875 Z " fill="#000000" transform="translate(2046,1768)"/>
<path d="M0 0 C3.63 0 7.26 0 11 0 C11.01458252 1.23564697 11.02916504 2.47129395 11.04418945 3.74438477 C11.10237196 8.34981528 11.17960345 12.95476706 11.26245117 17.55981445 C11.29560684 19.54899294 11.32366765 21.53826339 11.34643555 23.52758789 C11.380154 26.39509084 11.43247823 29.26175817 11.48828125 32.12890625 C11.49467117 33.01147598 11.5010611 33.89404572 11.50764465 34.80335999 C11.65267275 40.9603949 12.37221833 46.29460452 16.8515625 50.90625 C21.04084149 53.03897385 25.44400689 52.6933033 30 52 C33.97051941 50.20609063 35.79713232 47.38474905 37.8125 43.5625 C39.75665068 37.73004795 40.17308888 32.08864474 40.31640625 25.9765625 C40.33718735 25.23038666 40.35796844 24.48421082 40.37937927 23.71542358 C40.4443123 21.35203492 40.50349571 18.98854336 40.5625 16.625 C40.60573884 15.01431265 40.64935477 13.40363537 40.69335938 11.79296875 C40.79993526 7.86208229 40.90135792 3.93109323 41 0 C44.63 0 48.26 0 52 0 C52 19.8 52 39.6 52 60 C48.37 60 44.74 60 41 60 C40.67 58.35 40.34 56.7 40 55 C39.29875 55.78375 38.5975 56.5675 37.875 57.375 C32.3811671 62.3911083 26.41033119 62.43874711 19.265625 62.31640625 C13.22910608 61.73152822 8.79459823 59.84061357 4.5625 55.5 C4.046875 54.675 3.53125 53.85 3 53 C2.608125 52.38125 2.21625 51.7625 1.8125 51.125 C-0.48892971 45.10587613 -0.13474775 38.47148115 -0.09765625 32.12890625 C-0.0962413 31.206577 -0.09482635 30.28424774 -0.09336853 29.33396912 C-0.08780506 26.41011202 -0.07525942 23.48633365 -0.0625 20.5625 C-0.05748028 18.57096465 -0.0529182 16.5794281 -0.04882812 14.58789062 C-0.03784762 9.72523044 -0.02060839 4.86262853 0 0 Z " fill="#000000" transform="translate(1594,1765)"/>
<path d="M0 0 C1.06009277 0.01027222 1.06009277 0.01027222 2.14160156 0.02075195 C9.22769134 0.23902445 13.49147166 1.73466828 18.5 6.875 C21.1109209 10.99222142 22.37839328 14.4330465 22.35205078 19.31958008 C22.35189972 20.26017776 22.35174866 21.20077545 22.35159302 22.1698761 C22.34127045 23.1721373 22.33094788 24.1743985 22.3203125 25.20703125 C22.3174826 26.24317062 22.31465271 27.27931 22.31173706 28.34684753 C22.30056454 31.64801707 22.27546505 34.94891281 22.25 38.25 C22.23996643 40.49153253 22.23084124 42.73306933 22.22265625 44.97460938 C22.20063474 50.46234467 22.16612476 55.94987595 22.125 61.4375 C18.825 61.4375 15.525 61.4375 12.125 61.4375 C12.09994385 60.39408447 12.0748877 59.35066895 12.04907227 58.27563477 C11.95418628 54.36732804 11.85417119 50.45916585 11.75268555 46.55102539 C11.70964114 44.86648972 11.66794777 43.18191892 11.62768555 41.49731445 C11.56923571 39.06190446 11.50576577 36.62666642 11.44140625 34.19140625 C11.42469376 33.45040176 11.40798126 32.70939728 11.39076233 31.94593811 C11.43460884 21.78055958 11.43460884 21.78055958 8.125 12.4375 C3.34900564 9.61089109 -0.30609701 8.93234187 -5.796875 9.80078125 C-10.37485124 11.20343186 -12.35540715 14.52821252 -14.625 18.5 C-16.79112622 23.59039661 -17.07166976 28.20931612 -17.19140625 33.703125 C-17.21218735 34.49652283 -17.23296844 35.28992065 -17.25437927 36.10736084 C-17.31959973 38.63398844 -17.37863144 41.16071721 -17.4375 43.6875 C-17.4807114 45.40365616 -17.52432653 47.11980222 -17.56835938 48.8359375 C-17.67525283 53.03635546 -17.77659729 57.23687489 -17.875 61.4375 C-21.505 61.4375 -25.135 61.4375 -28.875 61.4375 C-28.875 41.6375 -28.875 21.8375 -28.875 1.4375 C-25.245 1.4375 -21.615 1.4375 -17.875 1.4375 C-17.545 3.0875 -17.215 4.7375 -16.875 6.4375 C-16.50375 6.004375 -16.1325 5.57125 -15.75 5.125 C-11.03196428 0.87876785 -6.1802888 -0.09140276 0 0 Z " fill="#000000" transform="translate(1833.875,1763.5625)"/>
<path d="M0 0 C4.48086127 2.74318522 7.69923807 6.34771422 9.375 11.375 C9.46205429 12.95533192 9.49267952 14.53910378 9.48852539 16.12182617 C9.48844986 17.08259567 9.48837433 18.04336517 9.48829651 19.0332489 C9.48313522 20.06770645 9.47797394 21.102164 9.47265625 22.16796875 C9.4712413 23.22913406 9.46982635 24.29029938 9.46836853 25.38362122 C9.46276606 28.77660935 9.45021314 32.16953177 9.4375 35.5625 C9.43248532 37.86132717 9.42792236 40.16015538 9.42382812 42.45898438 C9.41279583 48.09768162 9.39552952 53.73632966 9.375 59.375 C6.075 59.375 2.775 59.375 -0.625 59.375 C-0.63958252 58.13935303 -0.65416504 56.90370605 -0.66918945 55.63061523 C-0.72737196 51.02518472 -0.80460345 46.42023294 -0.88745117 41.81518555 C-0.92060684 39.82600706 -0.94866765 37.83673661 -0.97143555 35.84741211 C-1.005154 32.97990916 -1.05747823 30.11324183 -1.11328125 27.24609375 C-1.11967117 26.36352402 -1.1260611 25.48095428 -1.13264465 24.57164001 C-1.26111022 19.11775208 -2.00922448 15.19608754 -4.625 10.375 C-8.93581558 7.09056908 -12.34746892 7.18058802 -17.4765625 7.85546875 C-21.03670561 8.71637608 -23.01706292 9.44916591 -25.07421875 12.58203125 C-25.48285156 13.44183594 -25.89148437 14.30164062 -26.3125 15.1875 C-26.72886719 16.03957031 -27.14523437 16.89164063 -27.57421875 17.76953125 C-29.62504946 22.85467653 -29.81503094 27.8722022 -29.94140625 33.30078125 C-29.96218735 34.04837204 -29.98296844 34.79596283 -30.00437927 35.56620789 C-30.06944189 37.93988396 -30.1285571 40.31366487 -30.1875 42.6875 C-30.23072646 44.30274495 -30.27434204 45.91797953 -30.31835938 47.53320312 C-30.42507851 51.48036299 -30.52646619 55.42762767 -30.625 59.375 C-34.255 59.375 -37.885 59.375 -41.625 59.375 C-41.625 39.575 -41.625 19.775 -41.625 -0.625 C-37.995 -0.625 -34.365 -0.625 -30.625 -0.625 C-30.295 1.355 -29.965 3.335 -29.625 5.375 C-28.903125 4.59125 -28.18125 3.8075 -27.4375 3 C-20.65880278 -3.32678407 -8.35497345 -3.83402223 0 0 Z " fill="#000000" transform="translate(1406.625,1765.625)"/>
<path d="M0 0 C3.84454306 2.7670915 6.27719682 5.90864432 7.359375 10.5546875 C7.6133201 12.46774056 7.73841392 14.39705189 7.83984375 16.32421875 C4.20984375 16.32421875 0.57984375 16.32421875 -3.16015625 16.32421875 C-4.07161458 14.30598958 -4.98307292 12.28776042 -5.89453125 10.26953125 C-7.41592697 7.93108968 -8.56010349 7.27235829 -11.16015625 6.32421875 C-15.35078184 6.02488835 -18.62613917 5.87759154 -22.16015625 8.32421875 C-23.58057446 11.16505516 -23.47467897 13.17899153 -23.16015625 16.32421875 C-19.91512178 20.67917363 -15.75653897 21.76959391 -10.78515625 23.32421875 C-3.07504639 25.7603993 3.06368819 28.42532738 7.83984375 35.32421875 C9.56221572 40.49133465 9.49545997 45.43021633 7.71484375 50.57421875 C4.76035062 54.90747534 1.60425503 57.56804249 -3.22265625 59.63671875 C-12.63895295 61.28083405 -21.77528964 61.40832631 -30.16015625 56.32421875 C-33.62856363 53.33844353 -35.91623049 49.734501 -37.16015625 45.32421875 C-37.16015625 43.67421875 -37.16015625 42.02421875 -37.16015625 40.32421875 C-33.53015625 40.32421875 -29.90015625 40.32421875 -26.16015625 40.32421875 C-25.64453125 41.58234375 -25.12890625 42.84046875 -24.59765625 44.13671875 C-22.92553097 47.44576667 -22.18423034 48.30894096 -18.91015625 50.38671875 C-14.2706616 51.54659241 -11.80310892 51.46592842 -7.16015625 50.32421875 C-4.55295307 48.80144868 -4.55295307 48.80144868 -3.16015625 46.32421875 C-2.41015625 43.32421875 -2.41015625 43.32421875 -3.16015625 40.32421875 C-7.73268344 35.76071035 -13.42247655 34.1834012 -19.390625 32.14453125 C-25.44567835 29.94639424 -31.03750678 27.04515563 -34.33227539 21.26953125 C-36.29701292 16.65289054 -35.65138806 11.66864266 -33.97265625 7.07421875 C-26.56345053 -4.16733476 -11.79201678 -6.25833293 0 0 Z " fill="#000000" transform="translate(1267.16015625,1766.67578125)"/>
<path d="M0 0 C3.3 0 6.6 0 10 0 C10 4.62 10 9.24 10 14 C13.63 14 17.26 14 21 14 C21 16.64 21 19.28 21 22 C17.37 22 13.74 22 10 22 C10.09373716 27.32053644 10.19987618 32.6406287 10.31738281 37.96069336 C10.35560367 39.76954418 10.3904685 41.57846921 10.421875 43.38745117 C10.46767557 45.99164302 10.52564474 48.595327 10.5859375 51.19921875 C10.59748871 52.00461594 10.60903992 52.81001312 10.62094116 53.63981628 C10.73112665 57.85660299 11.0759686 61.14856171 13 65 C15.64 65.33 18.28 65.66 21 66 C21 68.64 21 71.28 21 74 C18.60293877 74.10854617 16.21084162 74.18753157 13.8125 74.25 C13.13896484 74.28351563 12.46542969 74.31703125 11.77148438 74.3515625 C8.10958025 74.42301429 6.17849378 74.11534178 3.07421875 72.109375 C0.15017263 69.13576877 -0.12458702 67.5988504 -0.11352539 63.55029297 C-0.11344986 62.62948944 -0.11337433 61.70868591 -0.11329651 60.75997925 C-0.10813522 59.76410797 -0.10297394 58.76823669 -0.09765625 57.7421875 C-0.0962413 56.72399933 -0.09482635 55.70581116 -0.09336853 54.6567688 C-0.087759 51.39614965 -0.07520488 48.13559849 -0.0625 44.875 C-0.05748623 42.66796974 -0.05292311 40.46093841 -0.04882812 38.25390625 C-0.03778648 32.83591419 -0.02103905 27.41796195 0 22 C-2.64 22 -5.28 22 -8 22 C-8 19.36 -8 16.72 -8 14 C-5.36 14 -2.72 14 0 14 C0 9.38 0 4.76 0 0 Z " fill="#000000" transform="translate(1868,1752)"/>
<path d="M0 0 C3.3 0 6.6 0 10 0 C10.33 24.75 10.66 49.5 11 75 C13.31 75.33 15.62 75.66 18 76 C18.04241723 78.33294775 18.04092937 80.66702567 18 83 C16.285532 84.714468 14.08657934 84.21251477 11.75 84.25 C7.35257105 84.21573432 4.44382712 83.98465017 1 81 C-0.51382165 77.9723567 -0.12984253 74.84098447 -0.11352539 71.52099609 C-0.11367142 70.75017197 -0.11381744 69.97934784 -0.1139679 69.18516541 C-0.11326989 66.63122771 -0.10548275 64.07736249 -0.09765625 61.5234375 C-0.09579167 59.75509684 -0.09436796 57.98675567 -0.09336853 56.21841431 C-0.0895465 51.55935241 -0.07971888 46.90032158 -0.06866455 42.24127197 C-0.05844369 37.48897726 -0.05386946 32.73667753 -0.04882812 27.984375 C-0.03809634 18.65623633 -0.02102367 9.32812075 0 0 Z " fill="#000000" transform="translate(1677,1742)"/>
<path d="M0 0 C3.63 0 7.26 0 11 0 C11 25.74 11 51.48 11 78 C7.37 78 3.74 78 0 78 C0 52.26 0 26.52 0 0 Z " fill="#000000" transform="translate(1784,1747)"/>
<path d="M0 0 C1 1 1 1 1.09765625 2.84765625 C1.06510417 4.8984375 1.03255208 6.94921875 1 9 C0.33613281 9.08636719 -0.32773438 9.17273437 -1.01171875 9.26171875 C-6.81576806 10.1852828 -10.37948828 11.02179638 -14 16 C-16.14337765 21.07421568 -16.33796462 25.70123429 -16.4140625 31.1171875 C-16.43342865 31.97434357 -16.4527948 32.83149963 -16.4727478 33.71463013 C-16.53221256 36.43465428 -16.57879569 39.15472152 -16.625 41.875 C-16.6632103 43.72658028 -16.70226378 45.57814337 -16.7421875 47.4296875 C-16.83788664 51.95298425 -16.92203906 56.47636416 -17 61 C-20.63 61 -24.26 61 -28 61 C-28 41.2 -28 21.4 -28 1 C-24.37 1 -20.74 1 -17 1 C-16.67 2.98 -16.34 4.96 -16 7 C-15.4121875 5.824375 -15.4121875 5.824375 -14.8125 4.625 C-11.08194634 -0.77787082 -6.02656517 -0.30132826 0 0 Z " fill="#000000" transform="translate(2091,1764)"/>
<path d="M0 0 C0 2.97 0 5.94 0 9 C-2.0728125 9.3403125 -2.0728125 9.3403125 -4.1875 9.6875 C-8.76504001 10.70952937 -11.08705538 12.20434488 -14 16 C-16.44368701 20.6315387 -16.3444979 25.12449476 -16.4140625 30.23828125 C-16.43342865 31.11904831 -16.4527948 31.99981537 -16.4727478 32.90727234 C-16.53232851 35.70891766 -16.57884265 38.51060456 -16.625 41.3125 C-16.66319959 43.21681438 -16.70225247 45.12111185 -16.7421875 47.02539062 C-16.83801233 51.68345572 -16.9221226 56.34160168 -17 61 C-20.63 61 -24.26 61 -28 61 C-28 41.2 -28 21.4 -28 1 C-24.37 1 -20.74 1 -17 1 C-16.67 2.65 -16.34 4.3 -16 6 C-15.21625 5.195625 -14.4325 4.39125 -13.625 3.5625 C-9.12074506 -0.83451077 -6.09784027 -0.087112 0 0 Z " fill="#000000" transform="translate(1979,1764)"/>
<path d="M0 0 C3.63 0 7.26 0 11 0 C11 19.8 11 39.6 11 60 C7.37 60 3.74 60 0 60 C0 40.2 0 20.4 0 0 Z " fill="#000000" transform="translate(1982,1765)"/>
<path d="M0 0 C3.63 0 7.26 0 11 0 C11 19.8 11 39.6 11 60 C7.37 60 3.74 60 0 60 C0 40.2 0 20.4 0 0 Z " fill="#000000" transform="translate(1656,1765)"/>
<path d="M0 0 C3.63 0 7.26 0 11 0 C11 19.8 11 39.6 11 60 C7.37 60 3.74 60 0 60 C0 40.2 0 20.4 0 0 Z " fill="#000000" transform="translate(1281,1765)"/>
<path d="M0 0 C1.9375 1.125 1.9375 1.125 3 3 C3.53852618 6.61581862 3.42236225 8.34111489 1.4375 11.4375 C-1 13 -1 13 -4.625 12.875 C-8 12 -8 12 -10 10 C-10.54587156 3.99541284 -10.54587156 3.99541284 -8.9375 1.0625 C-5.88023824 -0.6140629 -3.4093712 -0.36528977 0 0 Z " fill="#000000" transform="translate(1665,1746)"/>
<path d="M0 0 C1.9375 1.125 1.9375 1.125 3 3 C3.53852618 6.61581862 3.42236225 8.34111489 1.4375 11.4375 C-1 13 -1 13 -4.625 12.875 C-8 12 -8 12 -10 10 C-10.54587156 3.99541284 -10.54587156 3.99541284 -8.9375 1.0625 C-5.88023824 -0.6140629 -3.4093712 -0.36528977 0 0 Z " fill="#000000" transform="translate(1290,1746)"/>
<path d="M0 0 C1.9375 1.0625 1.9375 1.0625 3 3 C3.4375 6.5 3.4375 6.5 3 10 C1.4375 12 1.4375 12 -1 13 C-4.625 12.875 -4.625 12.875 -8 12 C-10.31282587 8.53076119 -10.42478586 7.07794425 -10 3 C-7.72054654 -1.02256493 -4.21158603 -0.45124136 0 0 Z " fill="#000000" transform="translate(1991,1746)"/>
</svg>
