<svg width="60" height="58" viewBox="0 0 60 58" fill="none" xmlns="http://www.w3.org/2000/svg">
<path d="M29.7671 37.9314L29.6221 37.7814C27.7539 35.8911 25.5023 34.0697 24.6685 33.0692C23.3942 31.7512 22.8903 29.4268 24.3937 27.8673C25.0633 27.1727 25.9669 26.7902 26.9383 26.7902C27.9309 26.7902 28.8591 27.1845 29.5513 27.9012L29.7671 28.1244L29.983 27.9012C30.6757 27.1845 31.6034 26.7902 32.5959 26.7902C33.5679 26.7902 34.4715 27.1727 35.1411 27.8673C36.644 29.4268 36.1406 31.7512 34.8658 33.0692C34.032 34.0697 31.7808 35.8911 29.9127 37.7814L29.7671 37.9314Z" stroke="#1D4ED8" stroke-width="1.5" stroke-miterlimit="10" stroke-linecap="round" stroke-linejoin="round"/>
<path d="M10.5574 50.5411L10.4974 50.3464" stroke="#1D4ED8" stroke-width="1.5" stroke-miterlimit="10" stroke-linecap="round" stroke-linejoin="round"/>
<path d="M11.3189 50.3547C11.2786 50.3543 11.2393 50.3552 11.1995 50.3577C10.4011 50.4039 9.76145 51.0588 9.74769 51.8714C9.74031 52.2972 9.90648 52.686 10.1813 52.9697C10.4556 53.2548 10.8386 53.4338 11.2648 53.4412L14.2937 53.4943" stroke="#1D4ED8" stroke-width="1.5" stroke-miterlimit="10" stroke-linecap="round" stroke-linejoin="round"/>
<path d="M22.3156 44.3869L11.7633 44.2025C10.9104 44.1878 10.2068 44.8667 10.1921 45.7182C10.1847 46.144 10.3509 46.5329 10.6257 46.8175C10.876 47.0771 11.2171 47.2491 11.5977 47.2826C11.635 47.286 11.6719 47.288 11.7097 47.289" stroke="#1D4ED8" stroke-width="1.5" stroke-miterlimit="10" stroke-linecap="round" stroke-linejoin="round"/>
<path d="M18.9406 47.4109L11.5982 47.2826L9.9871 47.2546C9.13413 47.2398 8.43062 47.9187 8.41587 48.7707C8.4085 49.197 8.57466 49.5858 8.84948 49.8695C9.12381 50.1542 9.50679 50.3336 9.93303 50.341L10.8833 50.3577L18.8865 50.4973" stroke="#1D4ED8" stroke-width="1.5" stroke-miterlimit="10" stroke-linecap="round" stroke-linejoin="round"/>
<path d="M22.3171 44.3859C22.3171 44.3859 22.3171 44.3859 22.3151 44.3859C22.2295 44.3309 20.3107 43.1195 18.4829 41.9775C18.3954 41.9204 18.3088 41.8668 18.2218 41.8132C17.2277 41.1771 17.2027 39.8522 17.6078 39.1123C17.8261 38.7091 18.1727 38.483 18.5586 38.6359L26.6286 42.1451C27.4054 42.4833 28.1227 43.1003 28.6349 43.8151C28.9446 44.2453 29.4373 44.5113 29.9707 44.5206C29.9707 44.5206 29.9756 44.5206 29.9785 44.5206H30.7371" stroke="#1D4ED8" stroke-width="1.5" stroke-miterlimit="10" stroke-linecap="round" stroke-linejoin="round"/>
<path d="M18.8324 53.5803L13.9761 53.4948C13.1251 53.4805 12.4206 54.1575 12.4069 55.0114C12.3985 55.4367 12.5652 55.8256 12.8385 56.1087C13.1143 56.3934 13.4968 56.5723 13.924 56.5817L16.7071 56.6294L24.6537 56.768C26.0922 56.7936 27.4162 56.2493 28.4039 55.3384C28.7185 55.0458 29.1369 54.888 29.5671 54.8959L34.1824 54.9765" stroke="#1D4ED8" stroke-width="1.5" stroke-miterlimit="10" stroke-linecap="round" stroke-linejoin="round"/>
<path d="M42.3935 55.591L42.1895 55.5871" stroke="#1D4ED8" stroke-width="1.5" stroke-miterlimit="10" stroke-linecap="round" stroke-linejoin="round"/>
<path d="M42.4516 54.8094C42.4383 54.8467 42.4275 54.8851 42.4176 54.9229C42.2151 55.6968 42.6403 56.5065 43.4087 56.771C43.8124 56.9101 44.2337 56.8722 44.5891 56.6982C44.9441 56.5261 45.2332 56.2169 45.3723 55.8143L46.3585 52.9515" stroke="#1D4ED8" stroke-width="1.5" stroke-miterlimit="10" stroke-linecap="round" stroke-linejoin="round"/>
<path d="M40.1704 42.5133L36.734 52.4854C36.4567 53.2917 36.8849 54.1698 37.6916 54.4475C38.0943 54.5857 38.5151 54.5483 38.871 54.3748C39.196 54.2169 39.4649 53.9461 39.6144 53.5946C39.6291 53.5606 39.6424 53.5262 39.6542 53.4903" stroke="#1D4ED8" stroke-width="1.5" stroke-miterlimit="10" stroke-linecap="round" stroke-linejoin="round"/>
<mask id="mask0_1_61" style="mask-type:luminance" maskUnits="userSpaceOnUse" x="38" y="45" width="8" height="13">
<path d="M45.1245 46.5611V57.2496H38.9028V46.5611H45.1245Z" fill="white" stroke="white" stroke-width="1.5"/>
</mask>
<g mask="url(#mask0_1_61)">
<path d="M42.0052 46.6553L39.6144 53.5941L39.0899 55.1166C38.8121 55.9229 39.2408 56.8009 40.0471 57.0787C40.4507 57.2173 40.872 57.18 41.227 57.0064C41.5824 56.8334 41.8715 56.5251 42.0106 56.122L42.3198 55.2238L44.9255 47.6602" stroke="#1D4ED8" stroke-width="1.5" stroke-miterlimit="10" stroke-linecap="round" stroke-linejoin="round"/>
</g>
<path d="M40.1699 42.5114C40.1699 42.5114 40.1699 42.5114 40.1694 42.5133C40.0903 42.5772 38.3445 44.027 36.6931 45.4115C36.612 45.4764 36.5344 45.5427 36.4562 45.6086C35.5442 46.3569 34.2753 45.9714 33.6962 45.3574C33.3801 45.0255 33.2719 44.6263 33.5369 44.3068L39.37 37.7205C39.932 37.0868 40.7402 36.5961 41.5794 36.3297C42.0843 36.1679 42.4894 35.782 42.6634 35.2781C42.6634 35.2781 42.6649 35.2737 42.6654 35.2707L42.8999 34.5495" stroke="#1D4ED8" stroke-width="1.5" stroke-miterlimit="10" stroke-linecap="round" stroke-linejoin="round"/>
<path d="M47.8427 48.664L46.2607 53.2534C45.9839 54.0582 46.4106 54.9367 47.2188 55.2145C47.6215 55.3531 48.0428 55.3157 48.3968 55.1427C48.7532 54.9686 49.0408 54.6604 49.1824 54.2573L50.0875 51.6266L52.6754 44.1165C53.1439 42.7572 53.0358 41.33 52.4738 40.1098C52.2924 39.7204 52.2713 39.2745 52.4119 38.8679L53.9153 34.5057" stroke="#1D4ED8" stroke-width="1.5" stroke-miterlimit="10" stroke-linecap="round" stroke-linejoin="round"/>
<path d="M57.0371 26.8909L56.9707 27.0837" stroke="#1D4ED8" stroke-width="1.5" stroke-miterlimit="10" stroke-linecap="round" stroke-linejoin="round"/>
<mask id="mask1_1_61" style="mask-type:luminance" maskUnits="userSpaceOnUse" x="54" y="21" width="6" height="7">
<path d="M58.9484 22.1451V27.064H55.5802V22.1451H58.9484Z" fill="white" stroke="white" stroke-width="1.5"/>
</mask>
<g mask="url(#mask1_1_61)">
<path d="M56.311 26.5945C56.3429 26.6186 56.3754 26.6412 56.4088 26.6623C57.0823 27.0935 57.9844 26.9396 58.4741 26.2907C58.7307 25.95 58.8251 25.538 58.7691 25.1472C58.715 24.7558 58.5105 24.3856 58.1698 24.129L55.7505 22.307" stroke="#1D4ED8" stroke-width="1.5" stroke-miterlimit="10" stroke-linecap="round" stroke-linejoin="round"/>
</g>
<path d="M43.9048 24.9633L52.3332 31.3107C53.0141 31.8239 53.9826 31.6877 54.4954 31.0073C54.752 30.6671 54.8459 30.2551 54.7913 29.8638C54.7417 29.5064 54.5672 29.1667 54.2781 28.9159C54.2506 28.8914 54.2216 28.8683 54.1921 28.8456" stroke="#1D4ED8" stroke-width="1.5" stroke-miterlimit="10" stroke-linecap="round" stroke-linejoin="round"/>
<path d="M48.413 24.4987L54.2781 28.9154L55.5647 29.8849C56.2466 30.3977 57.2146 30.262 57.7278 29.5811C57.9845 29.2404 58.0789 28.8284 58.0233 28.4376C57.9692 28.0463 57.7647 27.6766 57.424 27.4194L56.665 26.8477L50.2719 22.0342" stroke="#1D4ED8" stroke-width="1.5" stroke-miterlimit="10" stroke-linecap="round" stroke-linejoin="round"/>
<path d="M43.9028 24.9628C43.9028 24.9628 43.9028 24.9628 43.9043 24.9638C43.9412 25.0587 44.7814 27.1663 45.5881 29.1632C45.6255 29.2611 45.6643 29.355 45.7027 29.4503C46.1329 30.5477 45.3743 31.6346 44.6108 31.9955C44.1973 32.1936 43.7839 32.173 43.5617 31.8224L39.0967 24.2426C38.6675 23.5125 38.4502 22.5927 38.4561 21.7131C38.4576 21.1827 38.2162 20.6788 37.79 20.3582C37.79 20.3582 37.786 20.3548 37.7836 20.3533L37.1695 19.9079" stroke="#1D4ED8" stroke-width="1.5" stroke-miterlimit="10" stroke-linecap="round" stroke-linejoin="round"/>
<path d="M52.1297 19.5716L56.0081 22.4934C56.688 23.0047 57.656 22.8709 58.1698 22.1886C58.4264 21.8488 58.5203 21.4369 58.4657 21.0465C58.4102 20.6547 58.2057 20.2855 57.866 20.0264L55.6419 18.3534L49.295 13.5728C48.146 12.7071 46.7547 12.3693 45.42 12.5262C44.9933 12.5783 44.5621 12.4603 44.2184 12.2012L40.5322 9.42449" stroke="#1D4ED8" stroke-width="1.5" stroke-miterlimit="10" stroke-linecap="round" stroke-linejoin="round"/>
<path d="M34.2503 4.10412L34.4135 4.22702" stroke="#1D4ED8" stroke-width="1.5" stroke-miterlimit="10" stroke-linecap="round" stroke-linejoin="round"/>
<path d="M33.7439 4.70291C33.7764 4.67981 33.8078 4.65571 33.8383 4.63064C34.4568 4.12377 34.59 3.21869 34.123 2.55303C33.8786 2.20398 33.5153 1.98668 33.1264 1.91834C32.7371 1.84951 32.3216 1.92916 31.9721 2.17399L29.4909 3.91041" stroke="#1D4ED8" stroke-width="1.5" stroke-miterlimit="10" stroke-linecap="round" stroke-linejoin="round"/>
<path d="M28.3577 15.9906L37.0029 9.94069C37.7015 9.45202 37.8711 8.48991 37.3824 7.7918C37.1381 7.44274 36.7753 7.22594 36.3854 7.15711C36.0295 7.09419 35.6524 7.15515 35.325 7.35229C35.293 7.37097 35.262 7.39113 35.2311 7.41227" stroke="#1D4ED8" stroke-width="1.5" stroke-miterlimit="10" stroke-linecap="round" stroke-linejoin="round"/>
<path d="M29.3094 11.5616L35.3245 7.35229L36.6445 6.42853C37.3431 5.93936 37.5132 4.97725 37.024 4.27865C36.7792 3.9296 36.4159 3.71279 36.027 3.64445C35.6376 3.57562 35.2222 3.65576 34.8732 3.89961L34.0944 4.44433L27.5376 9.03267" stroke="#1D4ED8" stroke-width="1.5" stroke-miterlimit="10" stroke-linecap="round" stroke-linejoin="round"/>
<path d="M28.3567 15.9916C28.3567 15.9916 28.3567 15.9916 28.3581 15.9906C28.4599 15.9857 30.7248 15.8382 32.8752 15.6883C32.9789 15.6834 33.0812 15.6755 33.183 15.6681C34.3609 15.5983 35.1603 16.6558 35.2684 17.4926C35.3289 17.9468 35.1814 18.3332 34.7788 18.436L26.1861 20.3376C25.3587 20.52 24.4163 20.4423 23.581 20.1655C23.0771 19.9999 22.523 20.0736 22.086 20.3794C22.086 20.3794 22.0816 20.3823 22.0791 20.3838L21.4656 20.8297" stroke="#1D4ED8" stroke-width="1.5" stroke-miterlimit="10" stroke-linecap="round" stroke-linejoin="round"/>
<mask id="mask2_1_61" style="mask-type:luminance" maskUnits="userSpaceOnUse" x="11" y="0" width="21" height="16">
<path d="M30.5454 0.75V14.6035H12.4116V0.75H30.5454Z" fill="white" stroke="white" stroke-width="1.5"/>
</mask>
<g mask="url(#mask2_1_61)">
<path d="M25.7683 6.50719L29.747 3.72361C30.4441 3.23493 30.6157 2.2738 30.125 1.57471C29.8812 1.22566 29.5179 1.00836 29.13 0.940026C28.7396 0.87169 28.3252 0.952319 27.9742 1.19567L25.694 2.79198L19.1834 7.34738C18.0055 8.17184 17.2538 9.39008 16.9908 10.7067C16.9077 11.1285 16.6629 11.5021 16.3099 11.7484L12.5283 14.3943" stroke="#1D4ED8" stroke-width="1.5" stroke-miterlimit="10" stroke-linecap="round" stroke-linejoin="round"/>
</g>
<path d="M5.52412 18.7206L5.69128 18.6041" stroke="#1D4ED8" stroke-width="1.5" stroke-miterlimit="10" stroke-linecap="round" stroke-linejoin="round"/>
<path d="M5.93709 19.3873C5.92529 19.3489 5.91201 19.3121 5.89776 19.2752C5.60671 18.5304 4.78619 18.1248 4.00844 18.3622C3.60088 18.4871 3.28231 18.7649 3.09697 19.1139C2.91064 19.4625 2.85853 19.8824 2.9834 20.2899L3.86882 23.1851" stroke="#1D4ED8" stroke-width="1.5" stroke-miterlimit="10" stroke-linecap="round" stroke-linejoin="round"/>
<path d="M15.0149 27.9951L11.929 17.9089C11.6798 17.0933 10.8165 16.6347 10.0009 16.8839C9.5933 17.0083 9.27522 17.2861 9.08889 17.6351C8.91928 17.9537 8.86078 18.3313 8.94731 18.7034C8.95517 18.7398 8.96451 18.7752 8.97533 18.8111" stroke="#1D4ED8" stroke-width="1.5" stroke-miterlimit="10" stroke-linecap="round" stroke-linejoin="round"/>
<path d="M11.0942 25.7219L8.94731 18.7039L8.47584 17.1637C8.22658 16.3481 7.36329 15.8894 6.54719 16.1386C6.13964 16.2635 5.82106 16.5413 5.63572 16.8903C5.44989 17.2389 5.39728 17.6582 5.52215 18.0663L5.79992 18.9743L8.14055 26.6245" stroke="#1D4ED8" stroke-width="1.5" stroke-miterlimit="10" stroke-linecap="round" stroke-linejoin="round"/>
<path d="M15.0159 27.9961C15.0159 27.9961 15.0159 27.9961 15.0154 27.9946C15.0415 27.8963 15.601 25.6978 16.1231 23.6079C16.1501 23.5071 16.1742 23.4078 16.1988 23.3085C16.4967 22.1679 17.7499 21.7343 18.5792 21.8906C19.0305 21.9737 19.3531 22.2333 19.3265 22.6472L18.4804 31.4021C18.3983 32.2447 18.033 33.1169 17.5114 33.8253C17.1978 34.2525 17.097 34.8027 17.2533 35.312C17.2533 35.312 17.2543 35.3174 17.2553 35.3199L17.4898 36.0411" stroke="#1D4ED8" stroke-width="1.5" stroke-miterlimit="10" stroke-linecap="round" stroke-linejoin="round"/>
<path d="M5.18932 27.5256L3.77049 22.8837C3.52075 22.0696 2.65893 21.6094 1.84185 21.8601C1.43478 21.984 1.11621 22.2618 0.931356 22.6099C0.745522 22.9594 0.693901 23.3788 0.816807 23.7878L1.63143 26.448L3.95485 34.0436C4.37519 35.4187 5.3019 36.5096 6.47394 37.1664C6.84954 37.3753 7.12928 37.7234 7.25464 38.1349L8.60415 42.5472" stroke="#1D4ED8" stroke-width="1.5" stroke-miterlimit="10" stroke-linecap="round" stroke-linejoin="round"/>
</svg>
